<svg width="110" height="36" viewBox="0 0 110 36" fill="none" xmlns="http://www.w3.org/2000/svg">
<path d="M49.992 26L43.536 18.536V26H40.8V9.32H43.536V16.928L50.016 9.32H53.448L46.2 17.672L53.568 26H49.992ZM58.7235 14.696C59.1235 14.024 59.6515 13.504 60.3075 13.136C60.9795 12.752 61.7715 12.56 62.6835 12.56V15.392H61.9875C60.9155 15.392 60.0995 15.664 59.5395 16.208C58.9955 16.752 58.7235 17.696 58.7235 19.04V26H55.9875V12.776H58.7235V14.696ZM77.3184 19.064C77.3184 19.56 77.2864 20.008 77.2224 20.408H67.1184C67.1984 21.464 67.5904 22.312 68.2944 22.952C68.9984 23.592 69.8624 23.912 70.8864 23.912C72.3584 23.912 73.3984 23.296 74.0064 22.064H76.9584C76.5584 23.28 75.8304 24.28 74.7744 25.064C73.7344 25.832 72.4384 26.216 70.8864 26.216C69.6224 26.216 68.4864 25.936 67.4784 25.376C66.4864 24.8 65.7024 24 65.1264 22.976C64.5664 21.936 64.2864 20.736 64.2864 19.376C64.2864 18.016 64.5584 16.824 65.1024 15.8C65.6624 14.76 66.4384 13.96 67.4304 13.4C68.4384 12.84 69.5904 12.56 70.8864 12.56C72.1344 12.56 73.2464 12.832 74.2224 13.376C75.1984 13.92 75.9584 14.688 76.5024 15.68C77.0464 16.656 77.3184 17.784 77.3184 19.064ZM74.4624 18.2C74.4464 17.192 74.0864 16.384 73.3824 15.776C72.6784 15.168 71.8064 14.864 70.7664 14.864C69.8224 14.864 69.0144 15.168 68.3424 15.776C67.6704 16.368 67.2704 17.176 67.1424 18.2H74.4624ZM92.1309 19.064C92.1309 19.56 92.0989 20.008 92.0349 20.408H81.9309C82.0109 21.464 82.4029 22.312 83.1069 22.952C83.8109 23.592 84.6749 23.912 85.6989 23.912C87.1709 23.912 88.2109 23.296 88.8189 22.064H91.7709C91.3709 23.28 90.6429 24.28 89.5869 25.064C88.5469 25.832 87.2509 26.216 85.6989 26.216C84.4349 26.216 83.2989 25.936 82.2909 25.376C81.2989 24.8 80.5149 24 79.9389 22.976C79.3789 21.936 79.0989 20.736 79.0989 19.376C79.0989 18.016 79.3709 16.824 79.9149 15.8C80.4749 14.76 81.2509 13.96 82.2429 13.4C83.2509 12.84 84.4029 12.56 85.6989 12.56C86.9469 12.56 88.0589 12.832 89.0349 13.376C90.0109 13.92 90.7709 14.688 91.3149 15.68C91.8589 16.656 92.1309 17.784 92.1309 19.064ZM89.2749 18.2C89.2589 17.192 88.8989 16.384 88.1949 15.776C87.4909 15.168 86.6189 14.864 85.5789 14.864C84.6349 14.864 83.8269 15.168 83.1549 15.776C82.4829 16.368 82.0829 17.176 81.9549 18.2H89.2749ZM93.9114 19.328C93.9114 18 94.1834 16.824 94.7274 15.8C95.2874 14.776 96.0394 13.984 96.9834 13.424C97.9434 12.848 99.0074 12.56 100.175 12.56C101.039 12.56 101.887 12.752 102.719 13.136C103.567 13.504 104.239 14 104.735 14.624V8.24H107.495V26H104.735V24.008C104.287 24.648 103.663 25.176 102.863 25.592C102.079 26.008 101.175 26.216 100.151 26.216C98.9994 26.216 97.9434 25.928 96.9834 25.352C96.0394 24.76 95.2874 23.944 94.7274 22.904C94.1834 21.848 93.9114 20.656 93.9114 19.328ZM104.735 19.376C104.735 18.464 104.543 17.672 104.159 17C103.791 16.328 103.303 15.816 102.695 15.464C102.087 15.112 101.431 14.936 100.727 14.936C100.023 14.936 99.3674 15.112 98.7594 15.464C98.1514 15.8 97.6554 16.304 97.2714 16.976C96.9034 17.632 96.7194 18.416 96.7194 19.328C96.7194 20.24 96.9034 21.04 97.2714 21.728C97.6554 22.416 98.1514 22.944 98.7594 23.312C99.3834 23.664 100.039 23.84 100.727 23.84C101.431 23.84 102.087 23.664 102.695 23.312C103.303 22.96 103.791 22.448 104.159 21.776C104.543 21.088 104.735 20.288 104.735 19.376Z" fill="#232D22"/>
<rect y="3" width="30" height="30" rx="6" fill="#13AA52"/>
<path d="M9.70947 24.6781C9.15719 24.6781 8.70947 24.2304 8.70947 23.6781V12.2258C8.70947 11.6735 9.15719 11.2258 9.70947 11.2258H10.7611C11.3134 11.2258 11.7611 11.6735 11.7611 12.2258V23.6781C11.7611 24.2304 11.3134 24.6781 10.7611 24.6781H9.70947ZM12.7492 18.4557C12.67 18.2417 12.6664 18.007 12.739 17.7906L14.7137 11.9076C14.8505 11.5003 15.2321 11.2258 15.6618 11.2258H16.5646C17.2468 11.2258 17.7288 11.894 17.5135 12.5414L15.7666 17.7949C15.6955 18.0086 15.6987 18.2401 15.7756 18.4519L17.5502 23.3367C17.7871 23.9888 17.3041 24.6781 16.6103 24.6781H15.7471C15.3286 24.6781 14.9544 24.4175 14.8092 24.0251L12.7492 18.4557Z" fill="white"/>
<path d="M19.0114 23.3329C19.0114 22.7564 19.2928 22.3272 19.8555 22.0453C20.1008 21.93 20.3605 21.8724 20.6347 21.8724C21.2839 21.8724 21.7601 22.1222 22.0631 22.6219C22.1929 22.8396 22.2579 23.0767 22.2579 23.3329C22.2579 23.9222 21.9693 24.345 21.3921 24.6013C21.1469 24.7166 20.8944 24.7742 20.6347 24.7742C19.9709 24.7742 19.4948 24.518 19.2062 24.0055C19.0764 23.7877 19.0114 23.5635 19.0114 23.3329Z" fill="white"/>
</svg>
