<svg width="13" height="14" viewBox="0 0 13 14" fill="none" xmlns="http://www.w3.org/2000/svg">
<path fill-rule="evenodd" clip-rule="evenodd" d="M6.71022 1.01944C6.55706 0.847009 6.28769 0.847009 6.13453 1.01944L1.17996 6.59746C0.959395 6.84578 1.13567 7.23813 1.46781 7.23813H3.34248C3.55511 7.23813 3.72748 7.41051 3.72748 7.62313V12.4357C3.72748 12.6483 3.89985 12.8207 4.11248 12.8207H8.73248C8.94511 12.8207 9.11748 12.6483 9.11748 12.4357V7.62313C9.11748 7.41051 9.28985 7.23813 9.50248 7.23813H11.3769C11.7091 7.23813 11.8854 6.84578 11.6648 6.59746L6.71022 1.01944L6.99807 0.763769L6.71022 1.01944ZM5.55883 0.508094C6.01832 -0.00920874 6.82643 -0.00920832 7.28591 0.508094L12.2405 6.08611C12.9022 6.83107 12.3733 8.00813 11.3769 8.00813H9.88748V12.4357C9.88748 13.0736 9.37037 13.5907 8.73248 13.5907H4.11248C3.47459 13.5907 2.95748 13.0736 2.95748 12.4357V8.00813H1.46781C0.471417 8.00813 -0.057427 6.83107 0.604265 6.08611L5.55883 0.508094Z" fill="white"/>
</svg>
